<svg version="1.1" xmlns="http://www.w3.org/2000/svg" xmlns:xlink="http://www.w3.org/1999/xlink" width="70.36602" height="42.34253" viewBox="0,0,70.36602,42.34253"><defs><radialGradient cx="240" cy="185.5442" r="39.21101" gradientUnits="userSpaceOnUse" id="color-1"><stop offset="0" stop-color="#00d8ff"/><stop offset="1" stop-color="#0084ff"/></radialGradient></defs><g transform="translate(-203.76602,-164.37293)"><g data-paper-data="{&quot;isPaintingLayer&quot;:true}" fill-rule="nonzero" stroke-linecap="butt" stroke-linejoin="miter" stroke-miterlimit="10" stroke-dasharray="" stroke-dashoffset="0" style="mix-blend-mode: normal"><path d="M267.95407,185.54419c0,11.14028 -13.83368,20.17127 -30.89839,20.17127c-17.06471,0 -30.89838,-9.03099 -30.89838,-20.17127c0,-4.44422 0.37171,-3.38546 3.36979,-6.43177c0.89282,-0.90718 -7.12871,-6.17606 -4.05622,-9.34986c1.07927,-7.86901 9.1228,4.74742 12.66988,3.7388c1.3452,-0.38251 1.38025,-2.81571 3.8932,-4.12681c4.54171,-2.36956 12.20062,-4.00161 15.02173,-4.00161c7.50492,0 18.95958,7.05757 24.31273,9.96225c2.8004,1.51954 4.61479,-9.15953 10.18787,-3.13178c5.12915,3.0273 -3.95346,8.71154 -3.39407,9.63108c-0.39928,2.30255 -0.20815,1.08145 -0.20815,3.70969z" fill="url(#color-1)" stroke="#000000" stroke-width="2"/><g stroke="none" stroke-width="0.5"><path d="M240.88063,172.20002c0,-0.32841 1.75476,-0.59464 3.91938,-0.59464c2.16461,0 3.91938,0.26623 3.91938,0.59464c0,0.32841 -1.75476,0.59464 -3.91938,0.59464c-2.16461,0 -3.91938,-0.26623 -3.91938,-0.59464z" fill="#ffffff"/><path d="M242.84032,172.20002c0,-0.1642 0.87738,-0.29732 1.95969,-0.29732c1.0823,0 1.95968,0.13311 1.95968,0.29732c0,0.1642 -0.87738,0.29732 -1.95968,0.29732c-1.0823,0 -1.95969,-0.13311 -1.95969,-0.29732z" fill="#000000"/><path d="M243.39436,172.02572c0.32835,-0.085 1.0487,-0.11352 1.60896,-0.06371c0.56026,0.04982 -0.46906,0.05087 -0.79741,0.13586c-0.32835,0.085 0.16862,0.22177 -0.39164,0.17195c-0.56026,-0.04982 -0.74826,-0.1591 -0.41991,-0.24411z" fill="#ffffff"/></g><g stroke="none" stroke-width="0.5"><path d="M227.28063,173.70001c0,-0.23162 1.75476,-0.41938 3.91938,-0.41938c2.16461,0 3.91938,0.18776 3.91938,0.41938c0,0.23162 -1.75476,0.41938 -3.91938,0.41938c-2.16461,0 -3.91938,-0.18776 -3.91938,-0.41938z" fill="#ffffff"/><path d="M229.24032,173.70001c0,-0.11581 0.87738,-0.20969 1.95969,-0.20969c1.0823,0 1.95969,0.09388 1.95969,0.20969c0,0.11581 -0.87738,0.20969 -1.95969,0.20969c-1.0823,0 -1.95969,-0.09388 -1.95969,-0.20969z" fill="#000000"/><path d="M229.79436,173.57709c0.32835,-0.05995 1.04869,-0.08007 1.60895,-0.04493c0.56026,0.03513 -0.46906,0.03587 -0.79741,0.09582c-0.32835,0.05995 0.16862,0.1564 -0.39164,0.12127c-0.56026,-0.03513 -0.74826,-0.11221 -0.41991,-0.17216z" fill="#ffffff"/></g><path d="M233.0125,177.97229c0,-2.31269 1.87481,0.40679 4.1875,0.40679c2.31269,0 4.1875,-2.71948 4.1875,-0.40679c0,2.31269 -1.87481,4.1875 -4.1875,4.1875c-2.31269,0 -4.1875,-1.87481 -4.1875,-4.1875z" fill="#000000" stroke="none" stroke-width="0.5"/></g></g></svg>