<svg version="1.1" xmlns="http://www.w3.org/2000/svg" xmlns:xlink="http://www.w3.org/1999/xlink" width="80.42203" height="53.43087" viewBox="0,0,80.42203,53.43087"><defs><radialGradient cx="240" cy="180" r="39.21101" gradientUnits="userSpaceOnUse" id="color-1"><stop offset="0" stop-color="#00d8ff"/><stop offset="1" stop-color="#0084ff"/></radialGradient></defs><g transform="translate(-199.78899,-153.28456)"><g data-paper-data="{&quot;isPaintingLayer&quot;:true}" fill-rule="nonzero" stroke-linecap="butt" stroke-linejoin="miter" stroke-miterlimit="10" stroke-dasharray="" stroke-dashoffset="0" style="mix-blend-mode: normal"><path d="M267.95407,179.99999c0,14.20225 -13.83368,25.71545 -30.89839,25.71545c-17.06471,0 -30.89838,-11.5132 -30.89838,-25.71545c0,-5.66573 0.37171,-4.31598 3.36979,-8.19959c0.89282,-1.15653 -7.52871,5.54471 -8.65622,-1.11872c-1.32073,-10.23911 13.7228,-4.74873 17.26988,-6.03456c1.3452,-0.48764 1.38025,-3.58963 3.8932,-5.26109c4.54171,-3.02084 12.20062,-5.10147 15.02173,-5.10147c7.50492,0 18.95958,8.99737 24.31273,12.70044c2.8004,1.9372 23.01479,2.17136 16.58787,12.53454c-5.27085,5.64013 -10.35346,-5.42114 -9.79407,-4.24886c1.40072,2.93541 -0.20815,1.37869 -0.20815,4.72931z" fill="url(#color-1)" stroke="#000000" stroke-width="2"/><g stroke="none" stroke-width="0.5"><path d="M240.88063,168.8c0,-2.16461 1.75476,-3.91938 3.91938,-3.91938c2.16461,0 3.91938,1.75476 3.91938,3.91938c0,2.16461 -1.75476,3.91938 -3.91938,3.91938c-2.16461,0 -3.91938,-1.75476 -3.91938,-3.91938z" fill="#ffffff"/><path d="M242.84032,168.8c0,-1.0823 0.87738,-1.95969 1.95969,-1.95969c1.0823,0 1.95968,0.87738 1.95968,1.95969c0,1.0823 -0.87738,1.95968 -1.95968,1.95968c-1.0823,0 -1.95969,-0.87738 -1.95969,-1.95968z" fill="#000000"/><path d="M243.39436,167.65123c0.32835,-0.56026 1.0487,-0.74826 1.60896,-0.41991c0.56026,0.32835 -0.46906,0.33527 -0.79741,0.89553c-0.32835,0.56026 0.16862,1.46169 -0.39164,1.13334c-0.56026,-0.32835 -0.74826,-1.0487 -0.41991,-1.60896z" fill="#ffffff"/></g><g stroke="none" stroke-width="0.5"><path d="M227.08063,168.6c0,-2.16461 1.75476,-3.91938 3.91938,-3.91938c2.16461,0 3.91938,1.75476 3.91938,3.91938c0,2.16461 -1.75476,3.91938 -3.91938,3.91938c-2.16461,0 -3.91938,-1.75476 -3.91938,-3.91938z" fill="#ffffff"/><path d="M229.04032,168.6c0,-1.0823 0.87738,-1.95969 1.95969,-1.95969c1.0823,0 1.95969,0.87738 1.95969,1.95969c0,1.0823 -0.87738,1.95969 -1.95969,1.95969c-1.0823,0 -1.95969,-0.87738 -1.95969,-1.95969z" fill="#000000"/><path d="M229.59436,167.45123c0.32835,-0.56026 1.04869,-0.74826 1.60895,-0.41991c0.56026,0.32835 -0.46906,0.33527 -0.79741,0.89553c-0.32835,0.56026 0.16862,1.46169 -0.39164,1.13334c-0.56026,-0.32835 -0.74826,-1.0487 -0.41991,-1.60896z" fill="#ffffff"/></g><path d="M230.8125,178.37228c0,-2.31269 1.87481,0.40679 4.1875,0.40679c2.31269,0 4.1875,-2.71948 4.1875,-0.40679c0,2.31269 -1.87481,4.1875 -4.1875,4.1875c-2.31269,0 -4.1875,-1.87481 -4.1875,-4.1875z" fill="#000000" stroke="none" stroke-width="0.5"/></g></g></svg>