<svg version="1.1" xmlns="http://www.w3.org/2000/svg" xmlns:xlink="http://www.w3.org/1999/xlink" width="85.42727" height="51.45277" viewBox="0,0,85.42727,51.45277"><defs><radialGradient cx="242.91642" cy="180.98906" r="39.21101" gradientUnits="userSpaceOnUse" id="color-1"><stop offset="0" stop-color="#00d8ff"/><stop offset="1" stop-color="#0084ff"/></radialGradient></defs><g transform="translate(-197.28636,-154.27362)"><g data-paper-data="{&quot;isPaintingLayer&quot;:true}" fill-rule="nonzero" stroke-linecap="butt" stroke-linejoin="miter" stroke-miterlimit="10" stroke-dasharray="" stroke-dashoffset="0" style="mix-blend-mode: normal"><path d="M270.87049,180.98905c0,14.20225 -25.94961,23.73734 -43.01432,23.73734c-17.06471,0 -18.78245,-9.53509 -18.78245,-23.73734c0,-5.66573 0.37171,-4.31598 3.36979,-8.19959c0.89282,-1.15653 -12.96851,-0.63689 -14.09602,-7.30032c-1.32073,-10.23911 19.1626,1.43287 22.70968,0.14704c1.3452,-0.48764 1.38025,-3.58963 3.8932,-5.26109c4.54171,-3.02084 12.20062,-5.10147 15.02173,-5.10147c7.50492,0 18.95958,8.99737 24.31273,12.70044c2.8004,1.9372 14.11329,-9.94457 16.83513,0.41861c3.63065,4.15655 -10.60072,6.69479 -10.04133,7.86707c1.40072,2.93541 -0.20815,1.37869 -0.20815,4.72931z" fill="url(#color-1)" stroke="#000000" stroke-width="2"/><g stroke="none" stroke-width="0.5"><path d="M251.51297,167.81095c0,-2.16461 1.75476,-3.91938 3.91938,-3.91938c2.16461,0 3.91938,1.75476 3.91938,3.91938c0,2.16461 -1.75476,3.91938 -3.91938,3.91938c-2.16461,0 -3.91938,-1.75476 -3.91938,-3.91938z" fill="#ffffff"/><path d="M253.47266,167.81095c0,-1.0823 0.87738,-1.95969 1.95969,-1.95969c1.0823,0 1.95968,0.87738 1.95968,1.95969c0,1.0823 -0.87738,1.95968 -1.95968,1.95968c-1.0823,0 -1.95969,-0.87738 -1.95969,-1.95968z" fill="#000000"/><path d="M254.0267,166.66218c0.32835,-0.56026 1.0487,-0.74826 1.60896,-0.41991c0.56026,0.32835 -0.46906,0.33527 -0.79741,0.89553c-0.32835,0.56026 0.16862,1.46169 -0.39164,1.13334c-0.56026,-0.32835 -0.74826,-1.0487 -0.41991,-1.60896z" fill="#ffffff"/></g><g stroke="none" stroke-width="0.5"><path d="M242.41099,167.85821c0,-2.16461 1.75476,-3.91938 3.91938,-3.91938c2.16461,0 3.91938,1.75476 3.91938,3.91938c0,2.16461 -1.75476,3.91938 -3.91938,3.91938c-2.16461,0 -3.91938,-1.75476 -3.91938,-3.91938z" fill="#ffffff"/><path d="M244.37068,167.85821c0,-1.0823 0.87738,-1.95969 1.95969,-1.95969c1.0823,0 1.95969,0.87738 1.95969,1.95969c0,1.0823 -0.87738,1.95969 -1.95969,1.95969c-1.0823,0 -1.95969,-0.87738 -1.95969,-1.95969z" fill="#000000"/><path d="M244.92472,166.70944c0.32835,-0.56026 1.04869,-0.74826 1.60895,-0.41991c0.56026,0.32835 -0.46906,0.33527 -0.79741,0.89553c-0.32835,0.56026 0.16862,1.46169 -0.39164,1.13334c-0.56026,-0.32835 -0.74826,-1.0487 -0.41991,-1.60896z" fill="#ffffff"/></g><path d="M238.29326,175.06193c2.00833,-1.1468 0.57641,1.82979 1.72321,3.83812c1.1468,2.00833 4.43805,2.28789 2.42972,3.43469c-2.00833,1.1468 -4.56607,0.44839 -5.71287,-1.55994c-1.1468,-2.00833 -0.44839,-4.56607 1.55994,-5.71287z" fill="#000000" stroke="none" stroke-width="0.5"/></g></g></svg>