<svg version="1.1" xmlns="http://www.w3.org/2000/svg" xmlns:xlink="http://www.w3.org/1999/xlink" width="61.87518" height="102.42158" viewBox="0,0,61.87518,102.42158"><g transform="translate(-212.53692,-108.99121)"><g data-paper-data="{&quot;isPaintingLayer&quot;:true}" fill-rule="nonzero" stroke="#000000" stroke-width="2" stroke-linecap="butt" stroke-linejoin="miter" stroke-miterlimit="10" stroke-dasharray="" stroke-dashoffset="0" style="mix-blend-mode: normal"><path d="M228.12,210.41279v-60.82558h23.75999v60.82558z" fill="#800000"/><path d="M240.62331,142.3048c0,9.71049 -6.06349,17.58239 -13.54319,17.58239c-7.4797,0 -13.54319,-7.87191 -13.54319,-17.58239c0,-9.71049 6.06349,-17.58239 13.54319,-17.58239c7.4797,0 13.54319,7.87191 13.54319,17.58239z" fill="#35ff00"/><path d="M244.42491,138.7408c0,-11.67883 6.489,-21.14639 14.49359,-21.14639c8.00459,0 14.49359,9.46756 14.49359,21.14639c0,11.67883 -6.489,21.14639 -14.49359,21.14639c-8.00459,0 -14.49359,-9.46756 -14.49359,-21.14639z" fill="#35ff00"/><path d="M258.2057,122.3464c0,6.82359 -7.34002,12.3552 -16.39439,12.3552c-9.05437,0 -16.39439,-5.53161 -16.39439,-12.3552c0,-6.82359 7.34002,-12.3552 16.39439,-12.3552c9.05437,0 16.39439,5.53161 16.39439,12.3552z" fill="#35ff00"/><path d="M220.18972,139.9288c0,-8.92315 6.91451,-16.15679 15.44399,-16.15679c8.52948,0 15.44399,7.23364 15.44399,16.15679c0,8.92315 -6.91451,16.15679 -15.44399,16.15679c-8.52948,0 -15.44399,-7.23364 -15.44399,-16.15679z" fill="#35ff00"/><path d="M239.67291,132.088c0,-8.26704 4.57422,-14.96879 10.2168,-14.96879c5.64258,0 10.2168,6.70176 10.2168,14.96879c0,8.26704 -4.57422,14.96879 -10.2168,14.96879c-5.64258,0 -10.2168,-6.70176 -10.2168,-14.96879z" fill="#35ff00"/><path d="M233.02011,122.8216c0,4.72402 -3.40407,8.5536 -7.6032,8.5536c-4.19913,0 -7.6032,-3.82958 -7.6032,-8.5536c0,-4.72402 3.40407,-8.5536 7.6032,-8.5536c4.19913,0 7.6032,3.82958 7.6032,8.5536z" fill="#35ff00"/><path d="M226.36731,120.208c0,-4.85524 6.489,-8.7912 14.49359,-8.7912c8.00459,0 14.49359,3.93595 14.49359,8.7912c0,4.85524 -6.489,8.7912 -14.49359,8.7912c-8.00459,0 -14.49359,-3.93595 -14.49359,-8.7912z" fill="#35ff00"/><path d="M249.65211,132.5632c0,-6.69236 -6.38263,-12.1176 -14.25599,-12.1176c-7.87337,0 -14.25599,5.42523 -14.25599,12.1176c0,6.69236 6.38263,12.1176 14.25599,12.1176c7.87337,0 14.25599,-5.42523 14.25599,-12.1176z" fill="#35ff00"/></g></g></svg>