<svg version="1.1" xmlns="http://www.w3.org/2000/svg" xmlns:xlink="http://www.w3.org/1999/xlink" width="72.87224" height="102.42159" viewBox="0,0,72.87224,102.42159"><defs><radialGradient cx="214.58667" cy="168.76613" r="8.65423" gradientUnits="userSpaceOnUse" id="color-1"><stop offset="0" stop-color="#ff5f5f"/><stop offset="1" stop-color="#ff0000"/></radialGradient><radialGradient cx="268.58573" cy="170.19693" r="8.65423" gradientUnits="userSpaceOnUse" id="color-2"><stop offset="0" stop-color="#ff5f5f"/><stop offset="1" stop-color="#ff0000"/></radialGradient></defs><g transform="translate(-205.01728,-108.9912)"><g data-paper-data="{&quot;isPaintingLayer&quot;:true}" fill-rule="nonzero" stroke="#000000" stroke-width="2" stroke-linejoin="miter" stroke-miterlimit="10" stroke-dasharray="" stroke-dashoffset="0" style="mix-blend-mode: normal"><g><path d="M222.14511,164.55121c2.22808,3.99551 0.65025,9.12161 -3.52416,11.44944c-4.17441,2.32784 -9.36466,0.97592 -11.59273,-3.0196c-2.22808,-3.99551 -0.65025,-9.12161 3.52416,-11.44944c4.17441,-2.32784 9.36466,-0.97592 11.59273,3.0196z" fill="url(#color-1)" stroke-linecap="butt"/><path d="M218.16468,160.9671l4.3608,-6.39532" fill="none" stroke-linecap="round"/></g><g><path d="M270.50172,161.75746c4.46124,1.01282 7.21997,5.61236 6.1618,10.27335c-1.05817,4.66099 -5.53254,7.61842 -9.99377,6.60559c-4.46124,-1.01282 -7.21997,-5.61236 -6.1618,-10.27335c1.05817,-4.66099 5.53254,-7.61842 9.99377,-6.60559z" fill="url(#color-2)" stroke-linecap="butt"/><path d="M265.1754,162.32313l-1.84299,-7.51798" fill="none" stroke-linecap="round"/></g><path d="M228.12,210.41279v-60.82558h23.75999v60.82558z" fill="#800000" stroke-linecap="butt"/><path d="M240.62331,142.3048c0,9.71049 -6.06349,17.58239 -13.54319,17.58239c-7.4797,0 -13.54319,-7.87191 -13.54319,-17.58239c0,-9.71049 6.06349,-17.58239 13.54319,-17.58239c7.4797,0 13.54319,7.87191 13.54319,17.58239z" fill="#35ff00" stroke-linecap="butt"/><path d="M244.42491,138.7408c0,-11.67883 6.489,-21.14639 14.49359,-21.14639c8.00459,0 14.49359,9.46756 14.49359,21.14639c0,11.67883 -6.489,21.14639 -14.49359,21.14639c-8.00459,0 -14.49359,-9.46756 -14.49359,-21.14639z" fill="#35ff00" stroke-linecap="butt"/><path d="M258.2057,122.3464c0,6.82359 -7.34002,12.3552 -16.39439,12.3552c-9.05437,0 -16.39439,-5.53161 -16.39439,-12.3552c0,-6.82359 7.34002,-12.3552 16.39439,-12.3552c9.05437,0 16.39439,5.53161 16.39439,12.3552z" fill="#35ff00" stroke-linecap="butt"/><path d="M220.18972,139.9288c0,-8.92315 6.91451,-16.15679 15.44399,-16.15679c8.52948,0 15.44399,7.23364 15.44399,16.15679c0,8.92315 -6.91451,16.15679 -15.44399,16.15679c-8.52948,0 -15.44399,-7.23364 -15.44399,-16.15679z" fill="#35ff00" stroke-linecap="butt"/><path d="M239.67291,132.088c0,-8.26704 4.57422,-14.96879 10.2168,-14.96879c5.64258,0 10.2168,6.70176 10.2168,14.96879c0,8.26704 -4.57422,14.96879 -10.2168,14.96879c-5.64258,0 -10.2168,-6.70176 -10.2168,-14.96879z" fill="#35ff00" stroke-linecap="butt"/><path d="M233.02011,122.8216c0,4.72402 -3.40407,8.5536 -7.6032,8.5536c-4.19913,0 -7.6032,-3.82958 -7.6032,-8.5536c0,-4.72402 3.40407,-8.5536 7.6032,-8.5536c4.19913,0 7.6032,3.82958 7.6032,8.5536z" fill="#35ff00" stroke-linecap="butt"/><path d="M226.36731,120.208c0,-4.85524 6.489,-8.7912 14.49359,-8.7912c8.00459,0 14.49359,3.93595 14.49359,8.7912c0,4.85524 -6.489,8.7912 -14.49359,8.7912c-8.00459,0 -14.49359,-3.93595 -14.49359,-8.7912z" fill="#35ff00" stroke-linecap="butt"/><path d="M235.39612,144.6808c-7.87336,0 -14.25599,-5.42524 -14.25599,-12.1176c0,-6.69237 6.38262,-12.1176 14.25599,-12.1176c7.87336,0 14.25599,5.42524 14.25599,12.1176c0,6.69237 -6.38262,12.1176 -14.25599,12.1176z" fill="#35ff00" stroke-linecap="butt"/></g></g></svg>