<svg version="1.1" xmlns="http://www.w3.org/2000/svg" xmlns:xlink="http://www.w3.org/1999/xlink" width="174.2575" height="241.00115" viewBox="0,0,174.2575,241.00115"><g transform="translate(-152.87125,-59.49943)"><g data-paper-data="{&quot;isPaintingLayer&quot;:true}" fill-rule="nonzero" stroke="#000000" stroke-linejoin="miter" stroke-miterlimit="10" stroke-dasharray="" stroke-dashoffset="0" style="mix-blend-mode: normal"><path d="M189.8451,180.02133l-1.75,17.75l-18.75,-3l3.75,-17.5z" fill="#ff0000" stroke-width="4.5" stroke-linecap="round"/><path d="M267.55343,125.0769c0,0 14.47849,22.51767 20.24308,32.97714c4.85691,8.81254 12.09025,25.68953 12.09025,25.68953l-23.66667,8.33333c0,0 1.36872,-4.88028 0.79611,-9.30696c-1.42565,-11.02139 -9.46278,-57.69304 -9.46278,-57.69304z" fill="#ff0000" stroke-width="4.5" stroke-linecap="round"/><path d="M199.55343,280.52133c0,0 2.61064,5.42805 4.32855,8.27333c1.8305,3.03176 6.33812,9.39334 6.33812,9.39334l-47,-0.66667l-3,-25.33333z" fill="#ff0000" stroke-width="4.5" stroke-linecap="round"/><path d="M302.63678,279.02134l18.66667,16.16667l-63.83333,2l-1.33333,-14.83333z" fill="#ff0000" stroke-width="4.5" stroke-linecap="round"/><path d="M268.30345,210.188l27.66667,33.66667l7.5,33l-22.66667,3.83333l-7,2.33334l-21.5,1.33334l2.16666,-5.5c0,0 1.41286,-19.4786 0.55189,-30.04497c-0.96129,-11.79764 -6.05189,-37.45503 -6.05189,-37.45503z" fill="#ff0000" stroke-width="4.5" stroke-linecap="round"/><path d="M265.84511,119.27134c0,0 5.01225,42.80286 6,70.33333c0.98775,27.53047 -2.75,20.25 -2.75,20.25h-74.25c0,0 8.11673,-43.72908 13.16873,-58.94365c4.45643,-13.42097 15.58127,-27.63968 15.58127,-27.63968z" fill="#ff0000" stroke-width="4.5" stroke-linecap="round"/><path d="M256.47011,70.46579c21.53083,2.87133 29.45861,17.05721 22.5,37.22222c-3.20875,9.29849 -13.46609,11.75908 -21.73971,15.20166c-5.83021,2.4259 -23.6238,5.86266 -27.42695,4.465c-0.32976,-0.12119 -4.42808,-4.10597 -7.03089,-6.90747c-8.75313,-9.42128 -14.1929,-24.72806 -5.96912,-36.92587c8.22378,-12.19781 19.92134,-15.68875 39.66667,-13.05554z" fill="#ff0000" stroke-width="4.5" stroke-linecap="round"/><path d="M256.59684,91.05422c0,-1.39037 1.12712,-2.51748 2.51748,-2.51748c1.39037,0 2.51748,1.12712 2.51748,2.51748c0,1.39037 -1.12712,2.51748 -2.51748,2.51748c-1.39037,0 -2.51748,-1.12712 -2.51748,-2.51748z" fill="#000000" stroke-width="0" stroke-linecap="butt"/><path d="M241.28215,88.22206c0,-1.39037 1.12712,-2.51749 2.51749,-2.51749c1.39036,0 2.51748,1.12712 2.51748,2.51749c0,1.39037 -1.12712,2.51748 -2.51748,2.51748c-1.39036,0 -2.51749,-1.12711 -2.51749,-2.51748z" fill="#000000" stroke-width="0" stroke-linecap="butt"/><path d="M225.31012,114.93534l17.72727,-0.20979l0.52448,1.46853l15.62937,-0.20979" fill="none" stroke-width="4.5" stroke-linecap="round"/><path d="M196.59589,81.83404c-6.95182,1.46355 -20.37577,6.46508 -20.37577,6.46508l1.33333,-19c0,0 18.06638,2.01991 24.39144,3.91743c5.86191,1.75858 12.27523,7.08257 12.27523,7.08257c0,0 -12.42696,0.44076 -17.62423,1.53492z" fill="#ff0000" stroke-width="4.5" stroke-linecap="round"/><path d="M256.30343,61.74357c27.15055,1.96345 24,26.33333 24,26.33333c0,0 -9.13326,-6.64838 -29.05712,-8.49328c-25.73877,-2.38335 -34.90121,2.74328 -34.90121,2.74328c0,0 9.73713,-22.76884 39.95833,-20.58333z" fill="#ff0000" stroke-width="4.5" stroke-linecap="round"/><path d="M245.47011,78.63245l2.66666,-10.5l16,3.5l-0.83333,9.33333z" fill="#000000" stroke-width="4.5" stroke-linecap="round"/><path d="M213.92087,87.16993c0.78244,-2.75304 3.88258,-7.55136 3.88258,-7.55136l21.33333,-1.375c0,0 -10.15619,5.45458 -12.98615,8.3435c-2.44771,2.4987 -3.34718,8.98983 -3.34718,8.98983l-10.625,0.375c0,0 1.03178,-6.28158 1.74242,-8.78197z" fill="#ff0000" stroke-width="4.5" stroke-linecap="round"/><path d="M245.47011,78.13245l1.33333,-4.50001l16.66667,2.16667l-0.5,5.83333z" fill="#ff0000" stroke-width="2.5" stroke-linecap="round"/><path d="M248.34511,128.52134c0,0 -6.7548,15.9843 -8.87503,24.54646c-2.05203,8.28675 -5.14448,23.87116 -5.88104,27.49397c-0.09325,0.45867 -0.61503,-17.52258 -0.36507,-26.65917c0.23204,-8.48125 1.37114,-24.63126 1.37114,-24.63126z" fill="#000000" stroke-width="4.5" stroke-linecap="round"/><path d="M253.39511,162.49633l-0.6,-21.23333l1.2,-1l-0.3,-14.3" fill="none" stroke-width="4.5" stroke-linecap="round"/><path d="M217.99511,163.79633l0.1,-8.5l11.8,-26.73333" fill="none" stroke-width="4.5" stroke-linecap="round"/><path d="M214.55343,209.85467c0,0 -1.74934,25.33958 -4.32596,37.0775c-2.41259,10.99067 -10.67404,31.25583 -10.67404,31.25583l-41.33333,-6c0,0 23.49735,-19.39256 33,-36c9.50265,-16.60744 7,-26.33333 7,-26.33333z" fill="#ff0000" stroke-width="4.5" stroke-linecap="round"/><path d="M299.2201,185.96578l2.33333,15.66667c0,0 -6.1093,1.3759 -9.04899,2.49003c-3.13151,1.18683 -9.20101,4.42664 -9.20101,4.42664l-1.41667,-17.91667z" fill="#ff0000" stroke-width="4.5" stroke-linecap="round"/><path d="M198.70137,155.51843c-2.85582,7.79181 -2.35627,26.00291 -2.35627,26.00291l-26.25,-5.5c0,0 10.33923,-20.84143 17.84022,-28.86668c7.97048,-8.52757 28.65978,-20.88332 28.65978,-20.88332c0,0 -14.21174,19.20117 -17.89373,29.24709z" fill="#ff0000" stroke-width="4.5" stroke-linecap="round"/></g></g></svg>