<?xml version="1.0" encoding="UTF-8" standalone="no"?>
<svg
   version="1.1"
   width="52.06266"
   height="52"
   id="2"
   sodipodi:docname="speechbubbleicon.svg"
   inkscape:version="1.4.2 (ebf0e940d0, 2025-05-08)"
   xmlns:inkscape="http://www.inkscape.org/namespaces/inkscape"
   xmlns:sodipodi="http://sodipodi.sourceforge.net/DTD/sodipodi-0.dtd"
   xmlns="http://www.w3.org/2000/svg"
   xmlns:svg="http://www.w3.org/2000/svg">
  <sodipodi:namedview
     id="namedview2"
     pagecolor="#ffffff"
     bordercolor="#000000"
     borderopacity="0.25"
     inkscape:showpageshadow="2"
     inkscape:pageopacity="0.0"
     inkscape:pagecheckerboard="0"
     inkscape:deskcolor="#d1d1d1"
     inkscape:zoom="8.0297414"
     inkscape:cx="18.680552"
     inkscape:cy="24.720597"
     inkscape:window-width="2560"
     inkscape:window-height="1368"
     inkscape:window-x="0"
     inkscape:window-y="0"
     inkscape:window-maximized="1"
     inkscape:current-layer="2" />
  <defs
     id="defs1" />
  <g
     transform="translate(2,2)"
     id="g2">
    <g
       transform="matrix(-1,0,0,1,70,0)"
       id="g1">
      <path
         fill="#ffffff"
         stroke="#000000"
         paint-order="stroke fill markers"
         d="m 37.937341,36 v 0 H 37.761219 C 28.924663,36 21.937341,28.836556 21.937341,20 V 16 15.98443 C 21.937341,7.1478769 29.100785,0 37.937341,0 H 54 v 0 c 8.836556,0 16,7.163444 16,16 v 4 0 c 0,8.836556 -7.163444,16 -16,16 0,4 4,8 4,10 v 0 0 c 0,1.104569 -0.895431,2 -2,2 -3,0 -13,-4 -18,-12 z"
         stroke-opacity="0.15"
         stroke-miterlimit="10"
         stroke-width="4"
         stroke-dasharray="none"
         id="path1"
         sodipodi:nodetypes="ccsscsscsscscscsscc" />
    </g>
    <text
       fill="#575e75"
       stroke="none"
       font-family="sans-serif, sans-serif"
       font-size="14px"
       font-style="normal"
       font-weight="normal"
       text-decoration="normal"
       x="10"
       y="22.6"
       text-anchor="start"
       dominant-baseline="alphabetic"
       id="text1" />
  </g>
</svg>
