<svg version="1.1" xmlns="http://www.w3.org/2000/svg" xmlns:xlink="http://www.w3.org/1999/xlink" width="326.04931" height="329.80791" viewBox="0,0,326.04931,329.80791"><g transform="translate(-112.15399,13.04394)"><g data-paper-data="{&quot;isPaintingLayer&quot;:true}" fill-rule="nonzero" stroke-linejoin="miter" stroke-miterlimit="10" stroke-dasharray="" stroke-dashoffset="0" style="mix-blend-mode: normal"><g data-paper-data="{&quot;index&quot;:null}"><path d="M181.27491,274.23813c5.938,0.02438 10.59914,3.1854 10.82209,3.52764c0.33671,0.51686 2.13392,-2.40105 6.12069,-1.73637c11.49996,1.91729 20.46106,7.60973 20.46106,15.00349c0,5.54623 -2.31226,9.89624 -9.06809,12.82858c-6.49868,2.82072 -17.27196,4.32964 -25.97328,4.32964c-17.74695,0 -29.22605,-6.27687 -29.22605,-17.15822c0,-10.88134 8.11011,-16.87177 26.86358,-16.79476z" fill="#fc7701" stroke="#000000" stroke-width="1.5" stroke-linecap="butt"/><path d="M198.3485,279.53694c0,0 4.40462,-12.49842 6.22019,-23.73257c1.13748,-7.03835 1.39839,-21.65304 1.67626,-26.19721c0.05362,-0.87696 26.76033,4.83071 26.76033,4.83071c0,0 -0.51708,36.56894 -3.4858,49.77025c-2.1316,9.4788 -17.48865,18.51054 -17.48865,18.51054" fill="#fc7701" stroke="#000000" stroke-width="1.5" stroke-linecap="round"/><path d="M213.10559,244.3951c-1.98313,-1.37016 -6.89445,-2.20437 -6.89445,-2.20437l0.53927,-12.16927l26.65873,4.60835l-0.74708,22.41535c0,0 -16.83433,-10.76931 -19.55647,-12.65006z" fill="#000000" stroke="none" stroke-width="0" stroke-linecap="butt"/><path d="M204.90771,273.98639c0,0 -0.12104,-3.65392 0.65768,-7.49927c0.57217,-2.82537 1.9099,-5.56518 1.9099,-5.56518" fill="none" stroke="#000000" stroke-width="1.5" stroke-linecap="round"/><path d="M208.43469,271.83032c0,0 0.01537,-2.94673 0.22278,-4.6608c0.25419,-2.10067 1.43859,-4.70331 1.43859,-4.70331" fill="none" stroke="#000000" stroke-width="1.5" stroke-linecap="round"/><path d="M211.56203,269.1126c0,0 -0.08452,-0.86799 0.00795,-1.8614c0.07605,-0.81698 0.5509,-1.494 0.5509,-1.494" fill="none" stroke="#000000" stroke-width="1.5" stroke-linecap="round"/><path d="M207.46423,254.38226c0,0 -0.49824,-3.62181 -0.12134,-7.52707c0.27694,-2.86939 1.32418,-5.73284 1.32418,-5.73284" fill="none" stroke="#000000" stroke-width="1.5" stroke-linecap="round"/><path d="M210.74933,251.87304c0,0 -0.28943,-2.93252 -0.26038,-4.65885c0.0356,-2.1157 0.94451,-4.82686 0.94451,-4.82686" fill="none" stroke="#000000" stroke-width="1.5" stroke-linecap="round"/><path d="M213.57889,248.8465c0,0 -0.17382,-0.85459 -0.18458,-1.85224c-0.00884,-0.82046 0.39346,-1.54296 0.39346,-1.54296" fill="none" stroke="#000000" stroke-width="1.5" stroke-linecap="round"/><path d="M178.31967,277.70989c0,0 2.68663,-1.28027 5.78851,-0.679c2.69408,0.52222 4.66447,2.22766 4.66447,2.22766" fill="none" stroke="#000000" stroke-width="2" stroke-linecap="round"/><path d="M179.33366,282.30196c0,0 1.5147,-1.24076 3.48525,-0.97862c2.62326,0.34897 3.8121,1.19645 3.8121,1.19645" fill="none" stroke="#000000" stroke-width="2" stroke-linecap="round"/><path d="M184.12598,286.44074l-3.15856,-0.21783" fill="none" stroke="#000000" stroke-width="2" stroke-linecap="round"/><path d="M173.11053,296.23677c0,0 -7.55093,-0.69511 -10.66587,-1.20576c-2.42838,-0.3981 -6.48225,-1.60541 -6.48225,-1.60541l0.56223,-3.79507l16.30478,0.84335" fill="none" stroke="#000000" stroke-width="1.5" stroke-linecap="round"/><path d="M172.8294,285.55434l-14.61807,0.05992l2.05057,-3.66689l11.09798,-0.24582" fill="none" stroke="#000000" stroke-width="1.5" stroke-linecap="round"/><path d="M172.54828,304.67029c0,0 -4.59394,-0.32204 -6.61961,-0.74718c-1.71875,-0.36073 -4.76562,-1.64231 -4.76562,-1.64231l-3.33233,-5.32011c0,0 2.86973,1.42137 4.80818,1.93207c2.73476,0.7205 10.04994,1.47221 10.04994,1.47221" fill="none" stroke="#000000" stroke-width="1.5" stroke-linecap="round"/><path d="M153.96873,289.35532c0,-6.29261 5.6508,-12.64108 10.04112,-12.78782c0.42179,-0.0141 -1.49472,2.33329 -3.03765,5.54884c-1.38941,2.8956 -2.48692,6.53327 -2.40246,9.14661c0.29121,9.01056 5.30595,12.48399 3.75259,12.20085c-4.1336,-0.75346 -8.35359,-7.81588 -8.35359,-14.10849z" fill="#000000" stroke="none" stroke-width="0" stroke-linecap="butt"/><path d="M172.28556,277.53816l-11.3188,1.22436" fill="none" stroke="#000000" stroke-width="1.5" stroke-linecap="round"/></g><g data-paper-data="{&quot;index&quot;:null}"><path d="M234.05383,286.23811c-0.02293,-2.76168 12.34768,-13.73156 12.90803,-15.73444c3.79366,-13.55955 0.41716,-35.79174 1.41895,-36.38546c0.78954,-0.46791 21.09604,1.81077 22.09632,1.80446c0.99217,-0.00627 1.51361,10.02704 0.88527,19.78799c-0.60993,9.4749 -2.74856,20.36251 -2.54557,20.39059c0.71166,0.09843 42.38171,-16.3186 53.14452,-4.30545c3.34823,3.73721 7.3199,13.35881 -0.31059,19.05727c-1.1574,0.86435 -14.26825,5.65809 -23.49543,10.55904c-0.74488,0.39565 -6.46773,-2.63894 -7.08272,-2.19526c-1.44881,1.04521 -2.50443,3.25569 -8.81596,2.30489c-4.9673,-0.74829 -6.18145,-5.5135 -6.7967,-5.58387c-17.33627,-1.98272 -41.35704,-3.78874 -41.40612,-9.69975z" fill="#fc7701" stroke="#000000" stroke-width="1.5" stroke-linecap="butt"/><path d="M266.20208,276.14506c0,0 2.48589,-5.04237 6.98443,-2.8018c2.01164,1.00193 -1.80849,6.38969 -1.80849,6.38969" fill="#fc7701" stroke="#000000" stroke-width="1.5" stroke-linecap="round"/><path d="M315.1547,274.07005c0,0 13.14168,4.83322 7.48046,18.9293c-3.84547,9.57496 -19.09746,2.15612 -19.09746,2.15612" fill="#fc7701" stroke="#000000" stroke-width="1.5" stroke-linecap="round"/><path d="M308.81179,277.42546c0,0 13.34499,10.72657 3.17309,23.06807c-7.22902,8.77092 -20.99671,-1.31261 -20.99671,-1.31261" fill="#fc7701" stroke="#000000" stroke-width="1.5" stroke-linecap="round"/><path d="M271.76904,244.76049c0,0 -5.12551,-1.89874 -10.75466,-0.99708c-5.62058,0.90028 -12.53925,8.48195 -12.53925,8.48195l0.65178,-22.02764l22.15645,3.43182z" fill="#000000" stroke="none" stroke-width="0" stroke-linecap="butt"/></g><g data-paper-data="{&quot;index&quot;:null}" fill="#fc7701" stroke="#000000" stroke-width="1.5"><path d="M203.66716,306.53221c-0.11024,-7.89054 12.34683,-18.77234 13.28122,-31.77521c1.21132,-16.85675 1.26656,-41.47644 -0.04986,-45.87384c-1.51995,-5.07723 22.4763,0.73044 23.50577,1.58712c0.4715,0.39236 1.71794,16.11295 1.9953,30.01224c0.2469,12.37294 -0.45546,23.12131 -0.35762,23.12735c3.53567,0.2184 35.09273,-12.01134 45.2088,-7.9716c12.90196,5.15225 21.47459,26.2286 5.94166,31.45809c-9.59218,3.2294 -21.50339,0.9506 -36.49276,0.9506c-0.2852,0 -4.06735,7.44018 -13.87455,7.9286c-8.11722,0.40425 -9.42909,-5.87697 -9.59805,-5.78118c-12.46752,7.06858 -29.45979,3.50465 -29.55991,-3.66219z" stroke-linecap="butt"/><path d="M287.55594,285.88333c0,0 6.41451,5.00963 7.18149,10.88791c1.25618,9.62763 -2.63696,13.64193 -6.91814,15.35658c-5.05426,2.02428 -10.91329,-0.45404 -10.91329,-0.45404" stroke-linecap="round"/><path d="M278.45049,288.77656c0,0 5.72664,5.57988 5.9693,11.59301c0.49729,12.32265 -6.65241,15.06764 -13.30232,15.6444c-7.61248,0.66024 -15.0938,-8.37821 -15.0938,-8.37821" stroke-linecap="round"/><path d="M236.90494,285.88372c0,0 1.39003,-2.73198 3.7984,-3.969c2.24401,-1.1526 5.88051,-0.66903 4.90523,0.51086c-0.92997,1.12509 -2.3809,4.07802 -2.3809,4.07802" stroke-linecap="round"/></g><g data-paper-data="{&quot;index&quot;:null}" stroke="#000000"><path d="M202.18371,162.78885c0,-17.92438 24.86046,-18.28076 49.07888,-18.28076c24.21842,0 44.7961,42.49575 44.7961,60.42012c0,17.92437 -19.02574,39.20296 -54.92529,36.86673c-9.46492,-0.61595 -39.86748,-0.79949 -44.42722,-31.53799c-3.3562,-22.6251 9.1684,-39.86342 8.7868,-40.1285c-1.00412,-0.69753 -3.30927,-4.30551 -3.30927,-7.33961z" fill="#fc7701" stroke-width="1.5" stroke-linecap="butt"/><path d="M207.94512,226.45816c0,0 -4.05614,-3.46372 -6.14778,-8.57137c-2.44208,-5.96342 -2.82786,-12.9649 -2.82786,-12.9649" fill="none" stroke-width="2" stroke-linecap="round"/><path d="M208.38636,222.0245c0,0 -2.55037,-3.34898 -3.98861,-7.64778c-1.16192,-3.4729 -1.19955,-7.03155 -1.19955,-7.03155" fill="none" stroke-width="2" stroke-linecap="round"/><path d="M211.35619,219.12041c0,0 -1.83868,-2.09581 -2.84322,-4.52993c-0.77852,-1.88643 -1.02588,-4.36445 -1.02588,-4.36445" fill="none" stroke-width="2" stroke-linecap="round"/><path d="M210.75643,210.83246l1.97431,4.39543" fill="none" stroke-width="2" stroke-linecap="round"/><path d="M200.12793,195.78396c0,0 0.95158,-7.04072 2.03231,-9.90796c1.20783,-3.20444 4.87584,-8.4198 4.87584,-8.4198" fill="none" stroke-width="2" stroke-linecap="round"/><path d="M205.2033,193.52824c0,0 0.79912,-6.15963 1.66709,-8.43167c0.68727,-1.79904 3.36616,-4.9952 3.36616,-4.9952" fill="none" stroke-width="2" stroke-linecap="round"/><path d="M206.54695,167.19942c0,0 -0.5549,-2.70746 -0.633,-5.24534c-0.12952,-4.20917 0.43661,-5.20074 0.43661,-5.20074" fill="none" stroke-width="2" stroke-linecap="round"/><path d="M209.40093,164.76251c0,0 -0.32051,-1.68777 -0.47006,-3.55321c-0.07258,-0.90527 0.10262,-2.87122 0.10262,-2.87122" fill="none" stroke-width="2" stroke-linecap="round"/><path d="M212.27661,162.49961l-0.14285,-2" fill="none" stroke-width="2" stroke-linecap="round"/></g><g data-paper-data="{&quot;index&quot;:null}" stroke="#000000" stroke-width="1.5" stroke-linecap="round"><path d="M240.10575,171.62757c0,0 -1.89847,5.22111 -9.48069,4.6187c-3.41561,-0.27137 -12.56493,-2.67552 -18.21845,-2.7067c-4.91188,-0.02709 -3.15,-4.24283 -3.15,-4.24283" fill="none"/><path d="M234.21269,171.79068c0,0 -1.27633,6.92829 -1.21348,13.85026c0.06226,6.85785 1.46377,13.71173 1.44672,13.33597c-0.00386,-0.08517 14.94793,-1.96151 16.37151,8.28251c1.40976,10.14457 -7.10174,12.12939 -11.44441,12.25763c-0.84956,0.02509 2.59292,2.89927 2.22309,3.72398c-4.31951,9.63242 -17.41443,16.3846 -24.01467,16.92434c-10.55092,0.86281 -16.03663,-12.10188 -16.42302,-23.82826c-0.28951,-8.78638 8.42902,-15.91857 8.41183,-16.20169c-1.03311,-17.01692 3.55055,-30.9274 3.55055,-30.9274" fill="#fc7701"/><path d="M237.8983,239.82618c0,0 -7.55966,6.5535 -16.10119,2.66427c-6.5965,-3.00359 -6.97705,-11.87225 -6.97705,-11.87225" fill="#fc7701"/><path d="M239.19815,219.05611c0,0 7.9454,-1.04186 10.32448,5.25847c2.43909,6.45925 0.74145,17.69826 -7.32738,18.38388c-12.73524,1.08213 -14.67047,-10.09879 -14.67047,-10.09879" fill="#fc7701"/><path d="M240.11288,223.74135c0,0 -0.88683,-1.99927 -1.1797,-5.4305c-0.13261,-1.55367 0.71347,-4.82649 0.71347,-4.82649" fill="none"/></g><g><path d="M302.7876,23.48506c0,0 -4.19591,-0.69023 -7.8359,0.68983c-3.2783,1.24292 -5.98526,4.55585 -6.85609,4.79536c-0.23767,0.06536 0.77586,-4.49831 4.03284,-7.86558c3.40652,-3.52187 9.06889,-5.85585 9.06889,-5.85585" fill="none" stroke="#000000" stroke-width="1.5" stroke-linecap="round"/><path d="M292.80729,11.5098c0,0 -3.18903,1.19003 -4.0809,4.50154c-1.21707,4.51901 0.69068,11.59598 0.06289,11.74907c-6.5363,1.59397 -14.21093,7.94121 -23.68232,7.26112c-16.17453,-1.16141 -35.50122,-8.63655 -35.84321,-9.63633c-1.23049,-3.59718 -3.24939,-8.93086 -5.11031,-11.27147c-2.85141,-3.58641 -8.43867,-6.93336 -8.43867,-6.93336" fill="none" stroke="#000000" stroke-width="1.5" stroke-linecap="round"/><path d="M211.41751,15.22454c0,0 7.32751,2.96762 10.88679,5.0645c3.56956,2.10293 10.23317,9.80135 10.23317,9.80135c0,0 0.63509,-1.00137 -3.58859,-1.95567c-3.26983,-0.73878 -11.00959,-3.7192 -12.96805,-3.89656c-3.24858,-0.2942 -7.61018,1.37314 -7.61018,1.37314" fill="none" stroke="#000000" stroke-width="1.5" stroke-linecap="round"/><path d="M207.35067,147.70539c0,0 -4.8045,8.42103 -12.37907,7.89617c-5.45075,-0.37769 -11.16226,-5.94103 -11.15171,-8.97326c0.02134,-6.13182 6.04933,-6.31775 8.15136,-6.19608c0.44406,0.02571 8.07944,-13.71187 8.07944,-13.71187" fill="#fc7701" stroke="#000000" stroke-width="1.5" stroke-linecap="round"/><path d="M192.91829,143.19491c0,0 -2.85053,-18.71674 2.07702,-26.8525c3.98317,-6.57652 13.85035,-4.28915 13.85035,-4.28915" fill="#fc7701" stroke="#000000" stroke-width="1.5" stroke-linecap="round"/><path d="M238.27018,43.38602c-0.13403,3.31931 0.0739,90.40415 -0.20141,93.69038c-0.05013,0.59833 20.81227,-13.2986 30.10261,-19.44878c2.52454,-1.67124 5.10628,1.13438 5.08924,1.3032c-0.96485,9.55376 -2.99026,18.53086 -7.88735,25.19562c-0.35052,0.47704 0.11117,-0.59512 0.50302,0.07726c0.73959,1.26908 0.83953,5.67098 0.54461,5.97298c-4.96555,5.08486 -21.32577,6.07478 -27.68518,7.10876c-2.0201,0.32845 -3.76336,-0.99598 -3.8806,-0.98913c-1.94763,0.11367 -4.53135,1.56596 -6.28229,1.49526c-22.67452,-0.91557 -33.34416,-17.24638 -32.17021,-46.31984c0.78412,-19.41924 9.39523,-48.44904 21.78447,-65.3144c4.19888,-5.7159 16.58087,-13.18963 21.12267,-12.04009c2.1205,0.5367 -0.99792,8.23763 -1.03955,9.26878z" fill="#fc7701" stroke="none" stroke-width="0" stroke-linecap="butt"/><path d="M267.813,38.54682c-0.50967,1.33135 -6.07012,10.14099 -13.16672,10.26651c-6.96666,0.12321 -16.18347,-11.51352 -16.66962,-11.61035c-3.47078,-0.69137 -6.14698,3.72665 -6.96629,5.59518c-0.1841,0.41985 -1.41382,8.4284 -1.85232,8.5238c-6.99128,1.52097 -11.63116,0.00204 -11.29592,-8.30033c0.12954,-3.20814 1.92474,-9.47071 5.37803,-13.46148c5.48352,-6.33698 13.98606,-9.77971 19.43958,-9.42971c7.5765,0.48626 20.57443,18.36136 23.74392,15.75355c2.10184,-1.72937 12.846,-8.69678 15.07733,-9.4404c11.03034,-3.67602 13.91968,9.11509 13.91619,13.31398c-0.00009,0.10922 0.06876,3.09108 -1.103,5.46282c-1.46989,2.97517 -4.49981,5.52323 -7.60769,6.2963c-3.91939,0.97493 -7.4068,0.60352 -10.41962,-3.07733c-0.58584,-0.71574 -1.13811,-6.24071 -1.68921,-6.78143c-3.8349,-3.76262 -6.72039,-3.27897 -6.78465,-3.1111z" fill="#f3d900" stroke="none" stroke-width="0" stroke-linecap="butt"/><path d="M265.83292,144.39137c0,0 1.41505,0.48624 1.27423,3.23256c-0.13891,2.70901 -2.4713,4.86193 -2.4713,4.86193" fill="#fc7701" stroke="#000000" stroke-width="1.5" stroke-linecap="round"/><path d="M242.88455,155.97097c0,0 -2.83781,1.63172 -4.6566,1.48491c-2.00555,-0.16189 -3.13821,-0.86728 -3.13821,-0.86728" fill="none" stroke="#000000" stroke-width="1.5" stroke-linecap="round"/><path d="M240.63226,154.19244c0,0 -27.76085,14.65644 -40.06054,-15.19374c-15.10478,-36.65784 17.30271,-93.01445 17.30271,-93.01445" fill="none" stroke="#000000" stroke-width="1.5" stroke-linecap="round"/><path d="M237.70764,139.79019c0,0 -1.83587,-37.35935 -2.0588,-55.03348c-0.20652,-16.37284 0.76668,-47.40632 0.76668,-47.40632c0,0 2.02024,-0.36251 2.72646,1.09999c2.02677,4.19722 13.16031,10.39851 13.16031,10.39851l5.31907,76.78932z" fill="#000000" stroke="none" stroke-width="0" stroke-linecap="butt"/><path d="M230.3028,44.42771c0,0 2.22562,-6.13336 7.35183,-7.22687c0.29664,-0.06328 10.47936,12.96546 18.06023,11.4395c8.21228,-1.65304 11.68326,-10.68295 12.25847,-10.6628c0.27902,0.00978 3.09324,1.164 5.73556,2.93653c3.54574,2.37857 7.12511,5.55403 7.12511,5.55403" fill="none" stroke="#000000" stroke-width="1.5" stroke-linecap="round"/><path d="M229.08637,51.32654c0,0 -12.64403,5.59248 -10.68011,-9.60433c1.92726,-14.91319 15.46786,-21.78765 24.15351,-21.5092c7.5,0.24044 18.18166,14.81198 18.43806,14.80164c3.92913,-0.15844 7.53165,-1.33462 9.29061,-1.65101c0.55984,-0.1007 21.82631,-19.88178 25.26137,4.94056c0.67767,4.89697 -2.04791,12.47319 -9.87892,13.33524c-9.97821,1.09842 -10.24485,-8.73286 -10.24485,-8.73286" fill="none" stroke="#000000" stroke-width="1.5" stroke-linecap="round"/><path d="M274.81132,33.97787c-0.10263,2.54162 -3.64999,4.46213 -7.92326,4.28958c-4.27327,-0.17255 -7.65424,-2.37282 -7.55161,-4.91444c0.10263,-2.54162 3.64999,-4.46213 7.92326,-4.28958c4.27327,0.17255 7.65424,2.37282 7.55161,4.91444z" fill="#e69a9a" stroke="#000000" stroke-width="1.5" stroke-linecap="butt"/><path d="M262.98046,148.591c0,0 5.53073,-9.11078 8.35717,-18.1775c1.81004,-5.80632 2.11799,-12.787 0.44367,-13.43301c-2.31399,-0.89282 -11.50723,6.20989 -19.62822,12.29574c-7.42879,5.56713 -13.93428,10.14201 -13.9935,9.88432c-0.10012,-0.43567 -2.54579,-29.9078 -2.71742,-57.17384c-0.14512,-23.05267 1.97279,-44.6383 1.97279,-44.6383" fill="none" stroke="#000000" stroke-width="1.5" stroke-linecap="round"/><path d="M229.01522,55.07691c0,0 -1.87298,0.55783 -3.3422,-0.08123c-1.11015,-0.48287 -2.2634,-2.44824 -2.2634,-2.44824" fill="none" stroke="#000000" stroke-width="1.5" stroke-linecap="round"/><path d="M223.71545,37.58282c0.02228,-0.55183 0.4877,-0.98112 1.03953,-0.95884c0.55183,0.02228 0.98112,0.4877 0.95884,1.03953c-0.02228,0.55183 -0.4877,0.98112 -1.03953,0.95884c-0.55183,-0.02228 -0.98112,-0.4877 -0.95884,-1.03953z" fill="#000000" stroke="none" stroke-width="0.5" stroke-linecap="butt"/><path d="M229.3059,30.96825c0.02785,-0.6898 0.60962,-1.2264 1.29941,-1.19855c0.6898,0.02785 1.2264,0.60962 1.19855,1.29941c-0.02785,0.6898 -0.60962,1.2264 -1.29941,1.19855c-0.6898,-0.02785 -1.2264,-0.60962 -1.19855,-1.29941z" fill="#000000" stroke="none" stroke-width="0.5" stroke-linecap="butt"/><path d="M235.06132,26.38711c0.02228,-0.55183 0.4877,-0.98112 1.03953,-0.95884c0.55183,0.02228 0.98112,0.4877 0.95884,1.03953c-0.02228,0.55183 -0.4877,0.98112 -1.03953,0.95884c-0.55183,-0.02228 -0.98112,-0.4877 -0.95884,-1.03953z" fill="#000000" stroke="none" stroke-width="0.5" stroke-linecap="butt"/><path d="M284.54361,32.46313c0.02228,-0.55183 0.4877,-0.98112 1.03953,-0.95884c0.55183,0.02228 0.98112,0.4877 0.95884,1.03953c-0.02228,0.55183 -0.4877,0.98112 -1.03953,0.95884c-0.55183,-0.02228 -0.98112,-0.4877 -0.95884,-1.03953z" fill="#000000" stroke="none" stroke-width="0.5" stroke-linecap="butt"/><path d="M288.89409,37.57901c0.01671,-0.41387 0.36578,-0.73584 0.77965,-0.71913c0.41387,0.01671 0.73584,0.36578 0.71913,0.77965c-0.01671,0.41387 -0.36578,0.73584 -0.77965,0.71913c-0.41387,-0.01671 -0.73584,-0.36578 -0.71913,-0.77965z" fill="#000000" stroke="none" stroke-width="0.5" stroke-linecap="butt"/><path d="M289.32727,42.53671c0.01671,-0.41387 0.36578,-0.73584 0.77965,-0.71913c0.41387,0.01671 0.73584,0.36578 0.71913,0.77965c-0.01671,0.41387 -0.36578,0.73584 -0.77965,0.71913c-0.41387,-0.01671 -0.73584,-0.36578 -0.71913,-0.77965z" fill="#000000" stroke="none" stroke-width="0.5" stroke-linecap="butt"/><path d="M212.65326,148.97747c0,0 -6.00599,-4.10328 -7.61072,-7.5036c-1.9941,-4.22535 -2.48776,-9.78133 -2.48776,-9.78133" fill="none" stroke="#000000" stroke-width="2" stroke-linecap="round"/><path d="M212.60996,144.45395c0,0 -3.00872,-1.58378 -4.50857,-4.49972c-1.35303,-2.63051 -1.78402,-6.171 -1.78402,-6.171" fill="none" stroke="#000000" stroke-width="2" stroke-linecap="round"/><path d="M213.44356,140.22625c0,0 -1.44735,-0.74524 -2.49959,-2.35211c-1.11455,-1.70203 -1.04924,-3.56767 -1.04924,-3.56767" fill="none" stroke="#000000" stroke-width="2" stroke-linecap="round"/><path d="M213.56661,134.83353l1.14889,2.03502" fill="none" stroke="#000000" stroke-width="2" stroke-linecap="round"/><path d="M233.99139,153.40052c0,0 -4.6417,2.03599 -8.45554,2.05579c-3.59327,0.01866 -7.41257,-1.25505 -7.41257,-1.25505" fill="none" stroke="#000000" stroke-width="2" stroke-linecap="round"/><path d="M231.40562,150.56756c0,0 -2.38793,1.61059 -4.53071,1.81233c-2.58985,0.24383 -4.97092,-1.3098 -4.97092,-1.3098" fill="none" stroke="#000000" stroke-width="2" stroke-linecap="round"/><path d="M224.55128,148.36413l4.24431,0.29085" fill="none" stroke="#000000" stroke-width="2" stroke-linecap="round"/><path d="M201.82265,126.95396c0,0 -2.6385,-6.03176 -2.73159,-11.64944c-0.11842,-7.1464 1.95487,-8.55326 1.95487,-8.55326" fill="none" stroke="#000000" stroke-width="2" stroke-linecap="round"/><path d="M203.85065,122.60394c0,0 -1.52988,-4.34174 -1.55843,-7.09422c-0.02723,-2.62588 0.88402,-5.71414 0.88402,-5.71414" fill="none" stroke="#000000" stroke-width="2" stroke-linecap="round"/><path d="M207.8131,120.74666c0,0 -1.48428,-4.11267 -1.66622,-5.99638c-0.14612,-1.51291 0.65829,-4.43929 0.65829,-4.43929" fill="none" stroke="#000000" stroke-width="2" stroke-linecap="round"/><path d="M211.10462,116.4617l-0.5072,-3.52878" fill="none" stroke="#000000" stroke-width="2" stroke-linecap="round"/><path d="M202.35728,100.50982c0,0 -0.24313,-7.36681 0.3233,-12.52729c0.52971,-4.82594 3.40371,-8.87691 3.40371,-8.87691" fill="none" stroke="#000000" stroke-width="2" stroke-linecap="round"/><path d="M209.31856,74.3495c0,0 0.65638,-8.49263 2.92615,-14.0184c1.41069,-3.43434 6.39735,-8.08167 6.39735,-8.08167" fill="none" stroke="#000000" stroke-width="2" stroke-linecap="round"/><path d="M212.95966,70.83175c0,0 0.46696,-5.31348 1.12881,-7.54383c0.55296,-1.86338 2.57465,-4.93633 2.57465,-4.93633" fill="none" stroke="#000000" stroke-width="2" stroke-linecap="round"/><path d="M219.0967,60.63901l-2.28221,6.47529" fill="none" stroke="#000000" stroke-width="2" stroke-linecap="round"/><path d="M220.55388,66.25491l0.43807,-2.50825" fill="none" stroke="#000000" stroke-width="2" stroke-linecap="round"/><path d="M207.02221,96.93386c0,0 -1.75817,-4.21867 -0.78565,-8.05452c0.47594,-1.87722 2.49201,-5.01147 2.49201,-5.01147" fill="none" stroke="#000000" stroke-width="2" stroke-linecap="round"/><path d="M209.82756,94.18441c0,0 -0.35276,-2.05466 -0.22749,-3.06386c0.1243,-1.0014 0.97625,-2.96816 0.97625,-2.96816" fill="none" stroke="#000000" stroke-width="2" stroke-linecap="round"/><path d="M213.08976,92.63217l0.10862,-2.68995" fill="none" stroke="#000000" stroke-width="2" stroke-linecap="round"/></g><path d="M233.99568,107.78703l-0.53741,-1.13101c-0.40649,-1.2204 -0.79108,-2.44822 -1.15875,-3.68102c-0.52067,0.46155 -1.03149,0.94253 -1.53186,1.44407c0,0 -1.76777,1.76776 -3.53553,0c-1.76776,-1.76776 0,-3.53554 0,-3.53554c9.40858,-9.38831 21.93394,-12.36632 34.66637,-14.75365c3.92799,-0.7365 7.66016,-1.8578 11.74211,-1.20571c6.29658,1.00588 9.70808,6.12478 13.62083,10.49912c6.66683,2.88089 15.22988,3.99732 22.14738,3.14509c5.58979,-0.68865 9.6247,-4.03442 15.57526,-3.21182c4.08878,0.56523 7.77825,2.48289 11.1855,4.81453c7.08188,1.41291 14.6715,3.67016 20.14764,8.16303c11.05454,9.06964 14.02537,24.46809 19.6294,36.75157c3.28075,8.75732 3.21333,16.60173 2.18227,25.75469c-0.45292,4.02063 -0.89903,8.77058 -3.19357,12.31297c-2.33937,3.6116 -6.72519,4.40614 -10.46483,5.80859c-3.05324,1.14504 -6.32628,2.86585 -9.46465,3.68808c-4.76129,1.24743 -11.12801,0.88386 -15.78761,-0.40239c-7.97932,-4.61287 -14.77884,-9.87076 -21.80694,-15.74625c-0.80336,-0.67162 -1.85924,-1.02603 -2.59341,-1.77266c-2.38136,-2.42177 -3.60483,-6.08523 -5.23395,-8.98203c-5.2127,-9.26885 -7.66989,-20.05594 -11.039,-30.16326c-1.69034,-5.18058 -4.46792,-8.22452 -8.513,-11.76378c-1.57252,-1.37588 -4.95965,-4.55974 -6.84054,-5.74645c-2.06639,-1.30375 -4.52498,-1.84494 -6.792,-2.7562c-12.76231,-5.12995 -25.00023,-7.28241 -38.68625,-5.76152c0,0 -0.86887,0.09654 -1.6361,-0.33836c-1.38756,-0.04252 -2.08135,-1.43009 -2.08135,-1.43009z" fill="#ff6969" stroke="none" stroke-width="0.5" stroke-linecap="butt"/><path d="M279.1348,95.28127c0,-1.38071 1.11929,-2.5 2.5,-2.5c1.38071,0 2.5,1.11929 2.5,2.5c0,1.38071 -1.11929,2.5 -2.5,2.5c-1.38071,0 -2.5,-1.11929 -2.5,-2.5z" fill="#000000" stroke="none" stroke-width="0.5" stroke-linecap="butt"/><path d="M329.87525,136.55351c-2.14373,1.28624 -3.42997,-0.85749 -3.42997,-0.85749l-1.5151,-2.52875c-0.88637,-1.80385 -1.59695,-3.71933 -2.03606,-5.68436c-4.60505,-3.64137 -9.37639,-7.0156 -13.96378,-10.68521c0,0 -1.95217,-1.56174 -0.39043,-3.51391c0.01597,-0.01996 0.03198,-0.03956 0.04803,-0.05879c-1.96967,-1.57978 -3.95095,-3.1435 -5.73291,-4.92651c-2.28261,-2.28396 -2.49259,-3.2531 -4.49701,-5.48063c-2.24299,-2.49266 -4.5218,-3.99752 -7.05875,-6.09233c-0.79128,-0.65337 -1.24304,-1.70537 -2.12838,-2.22421c-2.02166,-1.18476 -4.50258,-1.35334 -6.63154,-2.33227c-3.41944,-1.5723 -6.94839,-4.31947 -10.68668,-4.1699c0,0 -2.5,0 -2.5,-2.5c0,-2.5 2.5,-2.5 2.5,-2.5c4.8269,0.12156 8.42897,2.61298 12.79042,4.63401c2.27212,1.05287 4.89839,1.30038 7.06344,2.5588c1.1066,0.6432 1.7688,1.86033 2.76268,2.66685c2.72517,2.21143 5.22154,3.9661 7.61444,6.62443c1.13957,1.26597 3.13767,4.11125 4.3069,5.27971c3.34791,3.34567 7.39581,5.93564 10.76034,9.29302l0.97821,0.97821c0,0 1.37117,1.37117 0.4907,2.90591c2.50538,1.8813 5.01641,3.7538 7.47973,5.70351c0.71867,0.13218 2.05482,0.6237 2.05482,2.45138c0,0.44237 -0.07828,0.80646 -0.20713,1.10613c0.32085,1.2322 0.78874,2.43183 1.36596,3.56013l1.41954,2.36232c0,0 1.28624,2.14373 -0.85749,3.42997z" fill="#000000" stroke="none" stroke-width="0.5" stroke-linecap="butt"/><path d="M421.15446,167.71875c0.92848,-2.32119 3.24967,-1.39272 3.24967,-1.39272l1.05873,0.42696c-1.80589,-2.19423 -3.48786,-4.49863 -5.08542,-7.052c0,0 -1.325,-2.12 0.795,-3.44499c2.12,-1.325 3.44499,0.795 3.44499,0.795c3.19221,5.11322 6.75192,9.10329 10.99227,13.35267l0.05345,0.13429l0.0359,-0.02872l1.94398,2.42998c0.35027,0.43024 0.56027,0.97924 0.56027,1.57729c0,1.38071 -1.11929,2.5 -2.5,2.5c-0.24775,0 -0.48708,-0.03604 -0.71304,-0.10316l-4.76857,-1.30052l0.0212,-0.07772c-0.17485,-0.03557 -0.34909,-0.07515 -0.52263,-0.11919c-1.95775,-0.49684 -3.17812,-2.51151 -4.90999,-3.55085l-2.2631,-0.89664c0,0 -2.32119,-0.92848 -1.39272,-3.24967z" fill="#bdfcff" stroke="none" stroke-width="0.5" stroke-linecap="butt"/><path d="M399.51369,209.14864c1.56174,-1.95217 3.51391,-0.39043 3.51391,-0.39043l2.98785,2.55843c0.45181,1.65252 1.09324,3.26457 1.35543,4.95756c0.92588,5.97862 -1.55498,12.08654 -2.45908,17.82464c-0.15686,0.99554 0.2535,2.04005 0.03228,3.02329v3.42374c0,1.38071 -1.11929,2.5 -2.5,2.5c-1.07904,0 -1.99842,-0.68362 -2.34866,-1.64138l-1.0735,-2.73679l0.02146,-0.00842l-0.04287,-0.04817c-3.02195,-8.95344 -7.23065,-17.67185 -8.80454,-27.00062c0,0 -0.411,-2.46598 2.05499,-2.87698c2.46598,-0.411 2.87698,2.05499 2.87698,2.05499c1.07159,6.51717 3.55871,12.76049 5.95528,18.98862c1.14232,-5.07942 1.78805,-10.68276 0.72413,-15.76013l-1.90321,-1.35442c0,0 -1.95217,-1.56174 -0.39043,-3.51391z" fill="#bdfcff" stroke="none" stroke-width="0.5" stroke-linecap="butt"/><path d="M420.54639,194.57213c0.18382,0.03414 0.29609,0.07156 0.29609,0.07156c1.00095,0.3362 1.99466,0.62432 2.98575,0.88651c-0.95201,-0.60222 -1.93118,-1.15969 -2.93793,-1.65891l-0.23205,0.67839c0,0 -0.04032,0.01008 -0.11186,0.02244zM419.44049,194.56439c-0.6997,-0.13564 -1.50025,-0.57896 -1.81394,-1.83372c-0.60634,-2.42536 1.81902,-3.0317 1.81902,-3.0317l3.6808,-0.29982c3.29276,1.65826 8.39765,4.13335 10.44945,7.33355c0.0456,0.07113 0.08993,0.1429 0.13305,0.21528l0.03377,-0.02701l1.94398,2.42998c0.35027,0.43024 0.56027,0.97924 0.56027,1.57729c0,1.38071 -1.11929,2.5 -2.5,2.5c-0.34826,0 -0.67989,-0.07121 -0.98112,-0.19986l-2.30401,-0.9216c-3.79036,-1.0837 -7.42611,-1.67027 -11.20042,-2.91968c0,0 -2.37171,-0.79057 -1.58114,-3.16228c0.3731,-1.1193 1.09837,-1.53428 1.76029,-1.66043z" fill="#bdfcff" stroke="none" stroke-width="0.5" stroke-linecap="butt"/><path d="M358.44657,211.67813c2.45599,-0.46704 2.92302,1.98895 2.92302,1.98895l0.59675,3.15741c0.67832,8.3869 0.98055,17.00661 -0.90061,25.18869h0.34788v2.93464c0,1.38071 -1.11929,2.5 -2.5,2.5c-1.0097,0 -1.8796,-0.59858 -2.27419,-1.46024l-1.78361,-3.68409l0.01651,-0.00799l-0.04214,-0.04662c-3.68476,-8.69283 -5.30366,-18.63594 -3.76273,-28.03665c0,0 0.411,-2.46598 2.87698,-2.05499c2.46598,0.411 2.05499,2.87698 2.05499,2.87698c-1.04444,6.14989 -0.50985,12.68382 1.16188,18.78197c0.35836,-5.44493 0.28863,-10.85749 -0.15003,-16.32289l-0.55365,-2.89215c0,0 -0.46704,-2.45599 1.98895,-2.92302z" fill="#bdfcff" stroke="none" stroke-width="0.5" stroke-linecap="butt"/><path d="M350.28026,58.70364c-1.51487,0.24457 -3.02226,0.52958 -4.51931,0.86779c0,0 -2.44047,0.54233 -2.98279,-1.89814c-0.54233,-2.44047 1.89814,-2.98279 1.89814,-2.98279c0.5588,-0.12235 1.11919,-0.23921 1.681,-0.35087c0.73939,-0.68688 1.79596,-0.68688 1.79596,-0.68688l1.59454,0.07637c4.92201,-0.79882 9.92496,-1.24905 14.89683,-1.53987c2.27074,-0.13282 7.61654,-0.25872 8.44065,2.9c0.85837,3.29004 -4.08842,5.32419 -6.16144,5.91655c-6.02093,1.72046 -11.11638,-0.2237 -16.64358,-2.30218z" fill="#bdfcff" stroke="none" stroke-width="0.5" stroke-linecap="butt"/><path d="M399.45497,112.39999c0,-2.5 2.5,-2.5 2.5,-2.5l2.09625,0.26393c4.66255,2.33324 9.00788,3.5559 14.09748,4.68666c0,0 2.44047,0.54233 1.89814,2.98279c-0.54233,2.44047 -2.98279,1.89814 -2.98279,1.89814c-0.81665,-0.18152 -1.61722,-0.36643 -2.40502,-0.55802c2.08371,0.86946 4.17128,1.73645 6.26902,2.58971c3.29936,1.34202 6.40833,2.79218 9.70922,3.90031c0.27323,-0.43312 0.74055,-0.81957 1.52505,-1.0157c2.42536,-0.60634 3.0317,1.81902 3.0317,1.81902l-2.53549,4.98989c-4.80224,-1.19757 -9.03547,-3.1999 -13.6142,-5.06193c-10.19609,-4.14644 -20.14659,-8.62883 -30.59671,-12.1122c0,0 -2.37171,-0.79057 -1.58114,-3.16228c0.79057,-2.37171 3.16228,-1.58114 3.16228,-1.58114c3.19775,1.06592 6.34935,2.22373 9.47561,3.43639c-0.03197,-0.17539 -0.04941,-0.36676 -0.04941,-0.57558z" fill="#bdfcff" stroke="none" stroke-width="0.5" stroke-linecap="butt"/><text transform="translate(112.40399,48.32705) scale(0.5,0.5)" font-size="40" xml:space="preserve" fill="#bdfcff" fill-rule="nonzero" stroke="none" stroke-width="1" stroke-linecap="butt" stroke-linejoin="miter" stroke-miterlimit="10" stroke-dasharray="" stroke-dashoffset="0" font-family="Sans Serif" font-weight="normal" text-anchor="start" style="mix-blend-mode: normal"><tspan x="0" dy="0">freakfield</tspan></text><g data-paper-data="{&quot;index&quot;:null}" stroke="none" stroke-width="1" stroke-linecap="butt"><path d="M261.00277,39.4791c-8.44676,0 -15.29422,-11.43481 -15.29422,-25.54037c0,-14.10556 6.84746,-25.54037 15.29422,-25.54037c8.44676,0 15.29422,11.43481 15.29422,25.54037c0,14.10556 -6.84746,25.54037 -15.29422,25.54037z" fill="#f5f8fa"/><path d="M244.26624,13.93874c0,-15.13076 7.35192,-26.98267 16.73653,-26.98267c9.38461,0 16.73653,11.85192 16.73653,26.98267c0,15.13076 -7.35192,26.98267 -16.73653,26.98267c-9.38461,0 -16.73653,-11.85192 -16.73653,-26.98267zM247.15085,13.93874c0,13.28845 6.21346,24.09806 13.85191,24.09806c7.63846,0 13.85191,-10.80961 13.85191,-24.09806c0,-13.28845 -6.21346,-24.09806 -13.85191,-24.09806c-7.63846,0 -13.85191,10.80961 -13.85191,24.09806z" fill="#e1e8ed"/><path d="M265.29892,23.47719c-5.26794,0 -9.53846,-4.27052 -9.53846,-9.53846c0,-5.26794 4.27052,-9.53846 9.53846,-9.53846c5.26794,0 9.53846,4.27052 9.53846,9.53846c0,5.26794 -4.27052,9.53846 -9.53846,9.53846z" fill="#8899a6"/><path d="M265.29892,20.7945c-3.78633,0 -6.85576,-3.06943 -6.85576,-6.85576c0,-3.78633 3.06943,-6.85576 6.85576,-6.85576c3.78633,0 6.85576,3.06943 6.85576,6.85576c0,3.78633 -3.06943,6.85576 -6.85576,6.85576z" fill="#292f33"/><path d="M262.76623,11.76374c-1.51454,0 -2.74231,-1.22777 -2.74231,-2.74231c0,-1.51454 1.22777,-2.74231 2.74231,-2.74231c1.51454,0 2.74231,1.22777 2.74231,2.74231c0,1.51454 -1.22777,2.74231 -2.74231,2.74231z" fill="#f5f8fa"/><path d="M225.60664,39.4791c-8.44676,0 -15.29422,-11.43481 -15.29422,-25.54037c0,-14.10556 6.84746,-25.54037 15.29422,-25.54037c8.44676,0 15.29422,11.43481 15.29422,25.54037c0,14.10556 -6.84746,25.54037 -15.29422,25.54037z" fill="#f5f8fa"/><path d="M208.86819,13.93874c0,-15.13076 7.35384,-26.98267 16.73845,-26.98267c9.38461,0 16.73653,11.85192 16.73653,26.98267c0,15.13076 -7.35192,26.98267 -16.73653,26.98267c-9.38461,0 -16.73845,-11.85192 -16.73845,-26.98267zM211.7528,13.93874c0,13.28845 6.21538,24.09806 13.85384,24.09806c7.63846,0 13.85191,-10.80961 13.85191,-24.09806c0,-13.28653 -6.21346,-24.09806 -13.85191,-24.09806c-7.63846,0 -13.85384,10.80961 -13.85384,24.09806z" fill="#e1e8ed"/><path d="M229.90279,23.47719c-5.26794,0 -9.53846,-4.27052 -9.53846,-9.53846c0,-5.26794 4.27052,-9.53846 9.53846,-9.53846c5.26794,0 9.53846,4.27052 9.53846,9.53846c0,5.26794 -4.27052,9.53846 -9.53846,9.53846z" fill="#8899a6"/><path d="M229.90279,20.7945c-3.78633,0 -6.85576,-3.06943 -6.85576,-6.85576c0,-3.78633 3.06943,-6.85576 6.85576,-6.85576c3.78633,0 6.85576,3.06943 6.85576,6.85576c0,3.78633 -3.06943,6.85576 -6.85576,6.85576z" fill="#292f33"/><path d="M227.3701,11.76374c-1.51454,0 -2.74231,-1.22777 -2.74231,-2.74231c0,-1.51454 1.22777,-2.74231 2.74231,-2.74231c1.51454,0 2.74231,1.22777 2.74231,2.74231c0,1.51454 -1.22777,2.74231 -2.74231,2.74231z" fill="#f5f8fa"/></g></g></g></svg>